# xmcd
#
# Track frame offsets:
# 150
# 10967
# 27227
# 40162
# 55422
# 69770
# 80717
# 94975
# 106117
# 122367
#
# Disc length: 1824 seconds
#
#
# Revision: 0
# Processed by: cddbd v1.5.2PL0 Copyright (c) Steve Scherf et al.
# Submitted via: FreeRIP 2.951 
#
DISCID=76071e0a
DTITLE=LOS INCONPARABLES - ZONA CALIENTE
DYEAR=1900
DGENRE=Classical
TTITLE0=SE EQUIVOCO EL PISTOLERO
TTITLE1=DE MEDELLIN A CABORCA
TTITLE2=ESTA DE PARRANDA EL JEFE
TTITLE3=ZONA CALIENTE
TTITLE4=LA VIVORA
TTITLE5=EL AYUDANTE
TTITLE6=LAS FRONTERAS
TTITLE7=NI NOMBRE TENGO
TTITLE8=DE NADA ME ESPANTO
TTITLE9=GATO POR LIEBRE
EXTD=
EXTT0=
EXTT1=
EXTT2=
EXTT3=
EXTT4=
EXTT5=
EXTT6=
EXTT7=
EXTT8=
EXTT9=
PLAYORDER=
